<?xml version="1.0" encoding="UTF-8" standalone="no"?>
<!DOCTYPE svg PUBLIC "-//W3C//DTD SVG 1.1//EN" "http://www.w3.org/Graphics/SVG/1.1/DTD/svg11.dtd">
<svg width="100%" height="100%" viewBox="0 0 3508 2481" version="1.1" xmlns="http://www.w3.org/2000/svg" xmlns:xlink="http://www.w3.org/1999/xlink" xml:space="preserve" xmlns:serif="http://www.serif.com/" style="fill-rule:evenodd;clip-rule:evenodd;stroke-linejoin:round;stroke-miterlimit:2;">



    <rect id="L1_L1_Artboard1" x="0" y="0" width="3507.87" height="2480.32" style="fill:none;"/>
    <g id="L1_L1_L1_Artboard11" serif:id="L1_L1_Artboard1">
        <g id="L1_body-back-4" serif:id="L1_body back 4" transform="matrix(1,0,0,1,-4,0)">
            <g transform="matrix(1,0,0,1,-119.851,215.174)">
                <rect x="758.489" y="469.798" width="540.401" height="319.485" style="fill:rgb(89,134,245);"/>
            </g>
            <g transform="matrix(1,0,0,1,18.7191,8.52414)">
                <rect x="758.489" y="469.798" width="540.401" height="319.485" style="fill:rgb(89,134,245);"/>
            </g>
            <g transform="matrix(1,0,0,1,233.408,-139.799)">
                <rect x="758.489" y="469.798" width="540.401" height="319.485" style="fill:rgb(255,149,106);"/>
            </g>
            <g transform="matrix(1,0,0,1,564.297,-231.43)">
                <rect x="758.489" y="469.798" width="540.401" height="319.485" style="fill:rgb(89,134,245);"/>
            </g>
            <g transform="matrix(1,0,0,1,986.266,-173.313)">
                <rect x="758.489" y="469.798" width="540.401" height="319.485" style="fill:rgb(255,112,174);"/>
            </g>
            <g transform="matrix(1,0,0,1,1340.11,-79.8552)">
                <rect x="758.489" y="469.798" width="540.401" height="319.485" style="fill:rgb(89,134,245);"/>
            </g>
            <g transform="matrix(1,0,0,1,1521.36,38.2535)">
                <rect x="758.489" y="469.798" width="540.401" height="319.485" style="fill:rgb(252,236,111);"/>
            </g>
            <g transform="matrix(1,0,0,1,-117.376,730.294)">
                <rect x="758.489" y="469.798" width="540.401" height="319.485" style="fill:rgb(255,112,170);"/>
            </g>
            <g transform="matrix(1,0,0,1,-43.829,937.979)">
                <rect x="758.489" y="469.798" width="540.401" height="319.485" style="fill:rgb(89,134,245);"/>
            </g>
            <g transform="matrix(1,0,0,1,92.3146,1159.75)">
                <rect x="758.489" y="469.798" width="540.401" height="319.485" style="fill:rgb(89,134,245);"/>
            </g>
            <g transform="matrix(1,0,0,1,376.135,1275.18)">
                <rect x="758.489" y="469.798" width="540.401" height="319.485" style="fill:rgb(222,246,111);"/>
            </g>
            <g transform="matrix(1,0,0,1,896.415,1277.63)">
                <rect x="758.489" y="469.798" width="540.401" height="319.485" style="fill:rgb(89,134,245);"/>
            </g>
            <g transform="matrix(1,0,0,1,1349.31,1175.96)">
                <rect x="758.489" y="469.798" width="540.401" height="319.485" style="fill:rgb(58,244,121);"/>
            </g>
            <g transform="matrix(1,0,0,1,1524.92,1084.61)">
                <rect x="758.489" y="469.798" width="540.401" height="319.485" style="fill:rgb(89,134,245);"/>
            </g>
            <g transform="matrix(0.480601,0,0,0.480601,2564.14,1258.39)">
                <rect x="758.489" y="469.798" width="540.401" height="319.485" style="fill:rgb(89,134,245);"/>
            </g>
            <g transform="matrix(0.480601,0,0,0.480601,2733.7,753.243)">
                <rect x="758.489" y="469.798" width="540.401" height="319.485" style="fill:rgb(255,113,182);"/>
            </g>
            <g transform="matrix(1,0,0,1,1695.63,595.341)">
                <rect x="758.489" y="469.798" width="540.401" height="319.485" style="fill:rgb(89,134,245);"/>
            </g>
            <g transform="matrix(1,0,0,1,1745.55,118.7)">
                <rect x="758.489" y="469.798" width="540.401" height="319.485" style="fill:rgb(149,244,110);"/>
            </g>
            <g transform="matrix(1,0,0,1,-191.683,471.4)">
                <rect x="758.489" y="469.798" width="540.401" height="319.485" style="fill:rgb(89,134,245);"/>
            </g>
            <g transform="matrix(7.50272,0,0,7.56384,-1310.36,-895.1)">
                <path d="M392.422,156.436C468.622,154.086 529.32,191.14 551.55,202.48C578.05,216.01 584.57,225.66 582.71,233.51C579.31,247.85 529.807,245.947 529.657,251.057C529.507,256.167 574.01,263.08 572.01,284.44C570.01,305.81 517.316,307.24 513.636,314.47C509.966,321.7 551.801,325.8 551.826,347.33C551.837,356.813 491.59,383.44 410.84,390.58C289.157,401.339 252.353,304.746 258.463,257.046C262.853,222.866 296.142,159.406 392.422,156.436Z" style="fill:rgb(0,243,89);fill-rule:nonzero;"/>
            </g>
            <g transform="matrix(7.1769,0,0,7.1769,-1210.83,-806.795)">
                <path d="M393,161.16C469.2,158.81 529.32,191.14 551.55,202.48C578.05,216.01 584.57,225.66 582.71,233.51C579.31,247.85 518.09,244.72 517.94,249.83C517.79,254.94 574.01,263.08 572.01,284.44C570.01,305.81 506.06,309.78 502.38,317.01C498.71,324.24 547.78,336.68 549.01,351.37C549.8,360.82 491.59,383.44 410.84,390.58C289.157,401.339 260.487,304.431 266.597,256.731C270.987,222.551 296.72,164.13 393,161.16Z" style="fill:rgb(0,37,242);fill-rule:nonzero;"/>
            </g>
            <g id="L1_shadow" transform="matrix(7.61972,0,0,7.61972,-1314.87,-931.584)">
                <ellipse cx="402.24" cy="426.45" rx="84.39" ry="11.62" style="fill:rgb(0,112,242);"/>
            </g>
        </g>
    </g>



    <rect id="L2_L2_Artboard1" x="0" y="0" width="3507.87" height="2480.32" style="fill:none;"/>
    <g id="L2_L2_L2_Artboard11" serif:id="L2_L2_Artboard1">
        <g transform="matrix(7.12225,0,0,7.09585,-1186.66,-794.819)">
            <g id="L2_body-front-8" serif:id="L2_body front 8">
                <path d="M385.08,161.37C461.28,159.02 521.4,191.35 543.63,202.69C570.13,216.22 572.39,226.01 570.53,233.87C567.13,248.21 499.78,241.154 499.63,246.264C499.48,251.374 559.21,264.24 557.21,285.6C555.21,306.97 489.58,307.19 485.91,314.41C482.24,321.64 532.12,341.39 530.2,350.67C528.28,359.95 481.505,386.521 400.755,393.661C290.786,399.123 257.499,309.555 263.609,261.855C267.989,227.665 288.8,164.34 385.08,161.37Z" style="fill:rgb(159,60,11);fill-rule:nonzero;"/>
                <clipPath id="L2__clip1">
                    <path d="M385.08,161.37C461.28,159.02 521.4,191.35 543.63,202.69C570.13,216.22 572.39,226.01 570.53,233.87C567.13,248.21 499.78,241.154 499.63,246.264C499.48,251.374 559.21,264.24 557.21,285.6C555.21,306.97 489.58,307.19 485.91,314.41C482.24,321.64 532.12,341.39 530.2,350.67C528.28,359.95 481.505,386.521 400.755,393.661C290.786,399.123 257.499,309.555 263.609,261.855C267.989,227.665 288.8,164.34 385.08,161.37Z" clip-rule="nonzero"/>
                </clipPath>
                <g clip-path="url(#L2__clip1)">
                    <g>
                        <g id="L2_L2_L2_L2_L2_L2_L2_XMLID_3_" transform="matrix(1,0,0,1,146.616,-5.71327)">
                            <path d="M414.62,293.58C418.32,324.86 468.47,323.24 468.9,348.29C469.43,378.54 422.78,389.15 390.36,392.99C326.65,400.53 268.9,355 261.36,291.29C253.82,227.58 299.35,169.83 363.06,162.29C408.35,156.93 474.97,171.03 474.97,209.18C474.97,226.28 412.44,275.16 414.62,293.58Z" style="fill:rgb(28,88,249);fill-rule:nonzero;"/>
                        </g>
                        <g id="L2_L2_L2_L2_L2_L2_L2_L2_XMLID_3_1" serif:id="L2_L2_L2_L2_L2_L2_L2_XMLID_3_" transform="matrix(1,0,0,1,108.755,-5.70861)">
                            <path d="M414.62,293.58C418.32,324.86 468.47,323.24 468.9,348.29C469.43,378.54 422.78,389.15 390.36,392.99C326.65,400.53 268.9,355 261.36,291.29C253.82,227.58 299.35,169.83 363.06,162.29C408.35,156.93 474.97,171.03 474.97,209.18C474.97,226.28 412.44,275.16 414.62,293.58Z" style="fill:rgb(28,249,242);fill-rule:nonzero;"/>
                        </g>
                        <g id="L2_L2_L2_L2_L2_L2_L2_L2_XMLID_3_2" serif:id="L2_L2_L2_L2_L2_L2_L2_XMLID_3_" transform="matrix(1,0,0,1,74.368,-4.13117)">
                            <path d="M414.62,293.58C418.32,324.86 468.47,323.24 468.9,348.29C469.43,378.54 422.78,389.15 390.36,392.99C326.65,400.53 268.9,355 261.36,291.29C253.82,227.58 299.35,169.83 363.06,162.29C408.35,156.93 474.97,171.03 474.97,209.18C474.97,226.28 412.44,275.16 414.62,293.58Z" style="fill:rgb(249,43,51);fill-rule:nonzero;"/>
                        </g>
                        <g id="L2_L2_L2_L2_L2_L2_L2_L2_XMLID_3_3" serif:id="L2_L2_L2_L2_L2_L2_L2_XMLID_3_" transform="matrix(1,0,0,1,43.5182,-2.66324)">
                            <path d="M414.62,293.58C418.32,324.86 468.47,323.24 468.9,348.29C469.43,378.54 422.78,389.15 390.36,392.99C326.65,400.53 268.9,355 261.36,291.29C253.82,227.58 299.35,169.83 363.06,162.29C408.35,156.93 474.97,171.03 474.97,209.18C474.97,226.28 412.44,275.16 414.62,293.58Z" style="fill:rgb(250,239,90);fill-rule:nonzero;"/>
                        </g>
                        <g id="L2_L2_L2_L2_L2_L2_L2_L2_XMLID_3_4" serif:id="L2_L2_L2_L2_L2_L2_L2_XMLID_3_" transform="matrix(1,0,0,1,25.1971,-1.78248)">
                            <path d="M414.62,293.58C418.32,324.86 468.47,323.24 468.9,348.29C469.43,378.54 422.78,389.15 390.36,392.99C326.65,400.53 268.9,355 261.36,291.29C253.82,227.58 299.35,169.83 363.06,162.29C408.35,156.93 474.97,171.03 474.97,209.18C474.97,226.28 412.44,275.16 414.62,293.58Z" style="fill:rgb(90,250,99);fill-rule:nonzero;"/>
                        </g>
                        <g id="L2_L2_L2_L2_L2_L2_L2_L2_XMLID_3_5" serif:id="L2_L2_L2_L2_L2_L2_L2_XMLID_3_" transform="matrix(1,0,0,1,-1.92928,1.50521)">
                            <path d="M414.62,293.58C418.32,324.86 468.47,323.24 468.9,348.29C469.43,378.54 422.78,389.15 390.36,392.99C326.65,400.53 268.9,355 261.36,291.29C253.82,227.58 299.35,169.83 363.06,162.29C408.35,156.93 474.97,171.03 474.97,209.18C474.97,226.28 412.44,275.16 414.62,293.58Z" style="fill:rgb(102,90,250);fill-rule:nonzero;"/>
                        </g>
                        <g id="L2_L2_L2_L2_L2_L2_L2_L2_XMLID_3_6" serif:id="L2_L2_L2_L2_L2_L2_L2_XMLID_3_" transform="matrix(1,0,0,1,-37.6744,-1.64672)">
                            <path d="M414.62,293.58C418.32,324.86 468.47,323.24 468.9,348.29C469.43,378.54 422.78,389.15 390.36,392.99C326.65,400.53 268.9,355 261.36,291.29C253.82,227.58 299.35,169.83 363.06,162.29C408.35,156.93 474.97,171.03 474.97,209.18C474.97,226.28 412.44,275.16 414.62,293.58Z" style="fill:rgb(250,90,170);fill-rule:nonzero;"/>
                        </g>
                        <g transform="matrix(0.88239,0,0,0.88239,177.626,-888.053)">
                            <path d="M224.245,1212.14C271.105,1238.47 194.016,1263.86 194.016,1333.07C194.016,1402.29 228.768,1392.04 215.423,1423.27C193.668,1474.18 35.431,1384.29 35.431,1315.07C35.431,1245.86 175.977,1185.03 224.245,1212.14Z" style="fill:rgb(205,47,203);"/>
                        </g>
                        <g transform="matrix(1.31105,0,0,1.14392,-81.0419,-45.4636)">
                            <clipPath id="L2__clip2">
                                <path d="M414.62,293.58C418.32,324.86 468.47,323.24 468.9,348.29C469.43,378.54 422.78,389.15 390.36,392.99C326.65,400.53 268.9,355 261.36,291.29C253.82,227.58 299.35,169.83 363.06,162.29C408.35,156.93 474.97,171.03 474.97,209.18C474.97,226.28 412.44,275.16 414.62,293.58Z"/>
                            </clipPath>
                            <g clip-path="url(#L2__clip2)">
                                <ellipse cx="329.77" cy="258.98" rx="78.38" ry="56.91" style="fill:rgb(58,36,22);"/>
                            </g>
                        </g>
                    </g>
                </g>
            </g>
        </g>
    </g>



    <rect id="L3_L3_Artboard1" x="0" y="0" width="3507.87" height="2480.32" style="fill:none;"/>
    <g id="L3_L3_L3_Artboard11" serif:id="L3_L3_Artboard1">
        <g id="L3_eyes-1" serif:id="L3_eyes 1" transform="matrix(1,0,0,1,-6,0)">
            <g transform="matrix(6.86182,0,0,6.86182,-1074.52,-751.473)">
                <path id="L3_L3_XMLID_2_" d="M365.33,250.95C365.1,265.18 357.96,276.61 349.38,276.47C340.8,276.33 334.04,264.68 334.27,250.44C334.5,236.21 341.64,224.78 350.22,224.92C358.8,225.06 365.57,236.72 365.33,250.95Z" style="fill:url(#L3__Linear1);fill-rule:nonzero;"/>
                <clipPath id="L3__clip2">
                    <path id="L3_L3_L3_XMLID_2_1" serif:id="L3_L3_XMLID_2_" d="M365.33,250.95C365.1,265.18 357.96,276.61 349.38,276.47C340.8,276.33 334.04,264.68 334.27,250.44C334.5,236.21 341.64,224.78 350.22,224.92C358.8,225.06 365.57,236.72 365.33,250.95Z" clip-rule="nonzero"/>
                </clipPath>
                <g clip-path="url(#L3__clip2)">
                    <ellipse cx="360.533" cy="250.495" rx="16.684" ry="26.621" style="fill:rgb(255,56,195);"/>
                </g>
            </g>
            <g transform="matrix(6.86182,0,0,6.86182,-1074.52,-751.473)">
                <path id="L3_L3_XMLID_1_" d="M295.13,252.33C294.9,266.56 289.13,278.01 282.24,277.9C275.35,277.79 269.96,266.16 270.19,251.92C270.42,237.69 276.19,226.24 283.08,226.35C289.97,226.47 295.37,238.1 295.13,252.33Z" style="fill:url(#L3__Linear3);fill-rule:nonzero;"/>
                <clipPath id="L3__clip4">
                    <path id="L3_L3_L3_XMLID_1_1" serif:id="L3_L3_XMLID_1_" d="M295.13,252.33C294.9,266.56 289.13,278.01 282.24,277.9C275.35,277.79 269.96,266.16 270.19,251.92C270.42,237.69 276.19,226.24 283.08,226.35C289.97,226.47 295.37,238.1 295.13,252.33Z" clip-rule="nonzero"/>
                </clipPath>
                <g clip-path="url(#L3__clip4)">
                    <g transform="matrix(1,0,0,1,-66.4092,1.47242)">
                        <ellipse cx="360.533" cy="250.495" rx="16.684" ry="26.621" style="fill:rgb(255,56,195);"/>
                    </g>
                </g>
            </g>
        </g>
    </g>
    <defs>
        <linearGradient id="L3__Linear1" x1="0" y1="0" x2="1" y2="0" gradientUnits="userSpaceOnUse" gradientTransform="matrix(3.15631e-15,-51.5465,51.5465,3.15631e-15,349.801,276.474)"><stop offset="0" style="stop-color:rgb(234,44,123);stop-opacity:1"/><stop offset="1" style="stop-color:rgb(143,40,140);stop-opacity:1"/></linearGradient>
        <linearGradient id="L3__Linear3" x1="0" y1="0" x2="1" y2="0" gradientUnits="userSpaceOnUse" gradientTransform="matrix(3.15626e-15,-51.5457,51.5457,3.15626e-15,282.663,277.899)"><stop offset="0" style="stop-color:rgb(234,44,123);stop-opacity:1"/><stop offset="1" style="stop-color:rgb(143,40,140);stop-opacity:1"/></linearGradient>
    </defs>



</svg>




